<svg width="747" height="217" viewBox="0 0 747 217" fill="none" xmlns="http://www.w3.org/2000/svg">
<g clip-path="url(#clip0)">
<path d="M268.488 75.476C264.997 75.476 261.869 74.9093 259.104 73.776C256.339 72.6427 254.117 70.9653 252.44 68.744C250.808 66.5227 249.947 63.848 249.856 60.72H262.232C262.413 62.488 263.025 63.848 264.068 64.8C265.111 65.7067 266.471 66.16 268.148 66.16C269.871 66.16 271.231 65.7747 272.228 65.004C273.225 64.188 273.724 63.0773 273.724 61.672C273.724 60.4933 273.316 59.5187 272.5 58.748C271.729 57.9773 270.755 57.3427 269.576 56.844C268.443 56.3453 266.811 55.7787 264.68 55.144C261.597 54.192 259.081 53.24 257.132 52.288C255.183 51.336 253.505 49.9307 252.1 48.072C250.695 46.2133 249.992 43.788 249.992 40.796C249.992 36.3533 251.601 32.8853 254.82 30.392C258.039 27.8533 262.232 26.584 267.4 26.584C272.659 26.584 276.897 27.8533 280.116 30.392C283.335 32.8853 285.057 36.376 285.284 40.864H272.704C272.613 39.3227 272.047 38.1213 271.004 37.26C269.961 36.3533 268.624 35.9 266.992 35.9C265.587 35.9 264.453 36.2853 263.592 37.056C262.731 37.7813 262.3 38.8467 262.3 40.252C262.3 41.7933 263.025 42.9947 264.476 43.856C265.927 44.7173 268.193 45.6467 271.276 46.644C274.359 47.6867 276.852 48.684 278.756 49.636C280.705 50.588 282.383 51.9707 283.788 53.784C285.193 55.5973 285.896 57.932 285.896 60.788C285.896 63.508 285.193 65.9787 283.788 68.2C282.428 70.4213 280.433 72.1893 277.804 73.504C275.175 74.8187 272.069 75.476 268.488 75.476ZM316.376 36.648C320.728 36.648 324.219 38.0987 326.848 41C329.477 43.856 330.792 47.8 330.792 52.832V75H319.232V54.396C319.232 51.8573 318.575 49.8853 317.26 48.48C315.945 47.0747 314.177 46.372 311.956 46.372C309.735 46.372 307.967 47.0747 306.652 48.48C305.337 49.8853 304.68 51.8573 304.68 54.396V75H293.052V24.68H304.68V42.156C305.859 40.4787 307.468 39.1413 309.508 38.144C311.548 37.1467 313.837 36.648 316.376 36.648ZM356.144 75.544C352.427 75.544 349.072 74.7507 346.08 73.164C343.134 71.5773 340.799 69.3107 339.076 66.364C337.399 63.4173 336.56 59.972 336.56 56.028C336.56 52.1293 337.422 48.7067 339.144 45.76C340.867 42.768 343.224 40.4787 346.216 38.892C349.208 37.3053 352.563 36.512 356.28 36.512C359.998 36.512 363.352 37.3053 366.344 38.892C369.336 40.4787 371.694 42.768 373.416 45.76C375.139 48.7067 376 52.1293 376 56.028C376 59.9267 375.116 63.372 373.348 66.364C371.626 69.3107 369.246 71.5773 366.208 73.164C363.216 74.7507 359.862 75.544 356.144 75.544ZM356.144 65.48C358.366 65.48 360.247 64.664 361.788 63.032C363.375 61.4 364.168 59.0653 364.168 56.028C364.168 52.9907 363.398 50.656 361.856 49.024C360.36 47.392 358.502 46.576 356.28 46.576C354.014 46.576 352.132 47.392 350.636 49.024C349.14 50.6107 348.392 52.9453 348.392 56.028C348.392 59.0653 349.118 61.4 350.568 63.032C352.064 64.664 353.923 65.48 356.144 65.48ZM393.797 42.428C394.93 40.66 396.494 39.232 398.489 38.144C400.484 37.056 402.818 36.512 405.493 36.512C408.621 36.512 411.454 37.3053 413.993 38.892C416.532 40.4787 418.526 42.7453 419.977 45.692C421.473 48.6387 422.221 52.0613 422.221 55.96C422.221 59.8587 421.473 63.304 419.977 66.296C418.526 69.2427 416.532 71.532 413.993 73.164C411.454 74.7507 408.621 75.544 405.493 75.544C402.864 75.544 400.529 75 398.489 73.912C396.494 72.824 394.93 71.4187 393.797 69.696V93.088H382.169V37.056H393.797V42.428ZM410.389 55.96C410.389 53.0587 409.573 50.792 407.941 49.16C406.354 47.4827 404.382 46.644 402.025 46.644C399.713 46.644 397.741 47.4827 396.109 49.16C394.522 50.8373 393.729 53.1267 393.729 56.028C393.729 58.9293 394.522 61.2187 396.109 62.896C397.741 64.5733 399.713 65.412 402.025 65.412C404.337 65.412 406.309 64.5733 407.941 62.896C409.573 61.1733 410.389 58.8613 410.389 55.96ZM434.169 33.112C432.129 33.112 430.452 32.5227 429.137 31.344C427.868 30.12 427.233 28.624 427.233 26.856C427.233 25.0427 427.868 23.5467 429.137 22.368C430.452 21.144 432.129 20.532 434.169 20.532C436.164 20.532 437.796 21.144 439.065 22.368C440.38 23.5467 441.037 25.0427 441.037 26.856C441.037 28.624 440.38 30.12 439.065 31.344C437.796 32.5227 436.164 33.112 434.169 33.112ZM439.949 37.056V75H428.321V37.056H439.949ZM467.416 46.712H461.16V75H449.532V46.712H445.316V37.056H449.532V35.968C449.532 31.2987 450.869 27.7627 453.544 25.36C456.219 22.912 460.14 21.688 465.308 21.688C466.169 21.688 466.804 21.7107 467.212 21.756V31.616C464.991 31.48 463.427 31.7973 462.52 32.568C461.613 33.3387 461.16 34.7213 461.16 36.716V37.056H467.416V46.712ZM511.64 37.056L487.84 93.02H475.328L484.032 73.708L468.596 37.056H481.584L490.356 60.788L499.06 37.056H511.64ZM285.556 95.264V104.58H272.908V143H261.28V104.58H248.632V95.264H285.556ZM314.716 104.648C319.068 104.648 322.558 106.099 325.188 109C327.817 111.856 329.132 115.8 329.132 120.832V143H317.572V122.396C317.572 119.857 316.914 117.885 315.6 116.48C314.285 115.075 312.517 114.372 310.296 114.372C308.074 114.372 306.306 115.075 304.992 116.48C303.677 117.885 303.02 119.857 303.02 122.396V143H291.392V92.68H303.02V110.156C304.198 108.479 305.808 107.141 307.848 106.144C309.888 105.147 312.177 104.648 314.716 104.648ZM372.98 123.416C372.98 124.504 372.912 125.637 372.776 126.816H346.46C346.641 129.173 347.389 130.987 348.704 132.256C350.064 133.48 351.719 134.092 353.668 134.092C356.569 134.092 358.587 132.868 359.72 130.42H372.096C371.461 132.913 370.305 135.157 368.628 137.152C366.996 139.147 364.933 140.711 362.44 141.844C359.947 142.977 357.159 143.544 354.076 143.544C350.359 143.544 347.049 142.751 344.148 141.164C341.247 139.577 338.98 137.311 337.348 134.364C335.716 131.417 334.9 127.972 334.9 124.028C334.9 120.084 335.693 116.639 337.28 113.692C338.912 110.745 341.179 108.479 344.08 106.892C346.981 105.305 350.313 104.512 354.076 104.512C357.748 104.512 361.012 105.283 363.868 106.824C366.724 108.365 368.945 110.564 370.532 113.42C372.164 116.276 372.98 119.608 372.98 123.416ZM361.08 120.356C361.08 118.361 360.4 116.775 359.04 115.596C357.68 114.417 355.98 113.828 353.94 113.828C351.991 113.828 350.336 114.395 348.976 115.528C347.661 116.661 346.845 118.271 346.528 120.356H361.08ZM427.53 104.648C432.245 104.648 435.985 106.076 438.75 108.932C441.561 111.788 442.966 115.755 442.966 120.832V143H431.406V122.396C431.406 119.948 430.749 118.067 429.434 116.752C428.165 115.392 426.397 114.712 424.13 114.712C421.864 114.712 420.073 115.392 418.758 116.752C417.489 118.067 416.854 119.948 416.854 122.396V143H405.294V122.396C405.294 119.948 404.637 118.067 403.322 116.752C402.053 115.392 400.285 114.712 398.018 114.712C395.752 114.712 393.961 115.392 392.646 116.752C391.377 118.067 390.742 119.948 390.742 122.396V143H379.114V105.056H390.742V109.816C391.921 108.229 393.462 106.983 395.366 106.076C397.27 105.124 399.424 104.648 401.826 104.648C404.682 104.648 407.221 105.26 409.442 106.484C411.709 107.708 413.477 109.453 414.746 111.72C416.061 109.635 417.852 107.935 420.118 106.62C422.385 105.305 424.856 104.648 427.53 104.648ZM486.867 123.416C486.867 124.504 486.799 125.637 486.663 126.816H460.347C460.528 129.173 461.276 130.987 462.591 132.256C463.951 133.48 465.605 134.092 467.555 134.092C470.456 134.092 472.473 132.868 473.607 130.42H485.983C485.348 132.913 484.192 135.157 482.515 137.152C480.883 139.147 478.82 140.711 476.327 141.844C473.833 142.977 471.045 143.544 467.963 143.544C464.245 143.544 460.936 142.751 458.035 141.164C455.133 139.577 452.867 137.311 451.235 134.364C449.603 131.417 448.787 127.972 448.787 124.028C448.787 120.084 449.58 116.639 451.167 113.692C452.799 110.745 455.065 108.479 457.967 106.892C460.868 105.305 464.2 104.512 467.963 104.512C471.635 104.512 474.899 105.283 477.755 106.824C480.611 108.365 482.832 110.564 484.419 113.42C486.051 116.276 486.867 119.608 486.867 123.416ZM474.967 120.356C474.967 118.361 474.287 116.775 472.927 115.596C471.567 114.417 469.867 113.828 467.827 113.828C465.877 113.828 464.223 114.395 462.863 115.528C461.548 116.661 460.732 118.271 460.415 120.356H474.967ZM519.039 134.024H534.271V143H507.411V95.264H519.039V134.024ZM537.506 123.96C537.506 120.061 538.231 116.639 539.682 113.692C541.178 110.745 543.195 108.479 545.734 106.892C548.272 105.305 551.106 104.512 554.234 104.512C556.908 104.512 559.243 105.056 561.238 106.144C563.278 107.232 564.842 108.66 565.93 110.428V105.056H577.558V143H565.93V137.628C564.796 139.396 563.21 140.824 561.17 141.912C559.175 143 556.84 143.544 554.166 143.544C551.083 143.544 548.272 142.751 545.734 141.164C543.195 139.532 541.178 137.243 539.682 134.296C538.231 131.304 537.506 127.859 537.506 123.96ZM565.93 124.028C565.93 121.127 565.114 118.837 563.482 117.16C561.895 115.483 559.946 114.644 557.634 114.644C555.322 114.644 553.35 115.483 551.718 117.16C550.131 118.792 549.338 121.059 549.338 123.96C549.338 126.861 550.131 129.173 551.718 130.896C553.35 132.573 555.322 133.412 557.634 133.412C559.946 133.412 561.895 132.573 563.482 130.896C565.114 129.219 565.93 126.929 565.93 124.028ZM597.598 110.428C598.686 108.66 600.25 107.232 602.29 106.144C604.33 105.056 606.665 104.512 609.294 104.512C612.422 104.512 615.255 105.305 617.794 106.892C620.333 108.479 622.327 110.745 623.778 113.692C625.274 116.639 626.022 120.061 626.022 123.96C626.022 127.859 625.274 131.304 623.778 134.296C622.327 137.243 620.333 139.532 617.794 141.164C615.255 142.751 612.422 143.544 609.294 143.544C606.619 143.544 604.285 143.023 602.29 141.98C600.295 140.892 598.731 139.464 597.598 137.696V143H585.97V92.68H597.598V110.428ZM614.19 123.96C614.19 121.059 613.374 118.792 611.742 117.16C610.155 115.483 608.183 114.644 605.826 114.644C603.514 114.644 601.542 115.483 599.91 117.16C598.323 118.837 597.53 121.127 597.53 124.028C597.53 126.929 598.323 129.219 599.91 130.896C601.542 132.573 603.514 133.412 605.826 133.412C608.138 133.412 610.11 132.573 611.742 130.896C613.374 129.173 614.19 126.861 614.19 123.96ZM644.56 119.064C644.56 114.349 645.58 110.156 647.62 106.484C649.66 102.767 652.494 99.888 656.12 97.848C659.792 95.7627 663.94 94.72 668.564 94.72C674.231 94.72 679.082 96.216 683.116 99.208C687.151 102.2 689.848 106.28 691.208 111.448H678.424C677.472 109.453 676.112 107.935 674.344 106.892C672.622 105.849 670.65 105.328 668.428 105.328C664.847 105.328 661.946 106.575 659.724 109.068C657.503 111.561 656.392 114.893 656.392 119.064C656.392 123.235 657.503 126.567 659.724 129.06C661.946 131.553 664.847 132.8 668.428 132.8C670.65 132.8 672.622 132.279 674.344 131.236C676.112 130.193 677.472 128.675 678.424 126.68H691.208C689.848 131.848 687.151 135.928 683.116 138.92C679.082 141.867 674.231 143.34 668.564 143.34C663.94 143.34 659.792 142.32 656.12 140.28C652.494 138.195 649.66 135.316 647.62 131.644C645.58 127.972 644.56 123.779 644.56 119.064ZM709.957 134.024H725.189V143H698.329V95.264H709.957V134.024ZM742.364 95.264V143H730.736V95.264H742.364Z" fill="#6E78FF"/>
<g filter="url(#filter0_d)">
<rect x="16" y="135" width="178" height="28" rx="14" fill="#6E78FF"/>
</g>
<rect x="5" y="5" width="196" height="161" rx="20" fill="#6E78FF" stroke="#6E78FF" stroke-width="10" stroke-linejoin="round"/>
<path d="M44.224 70.448C40.9387 70.448 37.9947 69.9147 35.392 68.848C32.7893 67.7813 30.6987 66.2027 29.12 64.112C27.584 62.0213 26.7733 59.504 26.688 56.56H38.336C38.5067 58.224 39.0827 59.504 40.064 60.4C41.0453 61.2533 42.3253 61.68 43.904 61.68C45.5253 61.68 46.8053 61.3173 47.744 60.592C48.6827 59.824 49.152 58.7787 49.152 57.456C49.152 56.3467 48.768 55.4293 48 54.704C47.2747 53.9787 46.3573 53.3813 45.248 52.912C44.1813 52.4427 42.6453 51.9093 40.64 51.312C37.7387 50.416 35.3707 49.52 33.536 48.624C31.7013 47.728 30.1227 46.4053 28.8 44.656C27.4773 42.9067 26.816 40.624 26.816 37.808C26.816 33.6267 28.3307 30.3627 31.36 28.016C34.3893 25.6267 38.336 24.432 43.2 24.432C48.1493 24.432 52.1387 25.6267 55.168 28.016C58.1973 30.3627 59.8187 33.648 60.032 37.872H48.192C48.1067 36.4213 47.5733 35.2907 46.592 34.48C45.6107 33.6267 44.352 33.2 42.816 33.2C41.4933 33.2 40.4267 33.5627 39.616 34.288C38.8053 34.9707 38.4 35.9733 38.4 37.296C38.4 38.7467 39.0827 39.8773 40.448 40.688C41.8133 41.4987 43.9467 42.3733 46.848 43.312C49.7493 44.2933 52.096 45.232 53.888 46.128C55.7227 47.024 57.3013 48.3253 58.624 50.032C59.9467 51.7387 60.608 53.936 60.608 56.624C60.608 59.184 59.9467 61.5093 58.624 63.6C57.344 65.6907 55.4667 67.3547 52.992 68.592C50.5173 69.8293 47.5947 70.448 44.224 70.448Z" fill="white"/>
<line x1="71" y1="67" x2="103" y2="67" stroke="white" stroke-width="6"/>
</g>
<defs>
<filter id="filter0_d" x="-14" y="120" width="238" height="88" filterUnits="userSpaceOnUse" color-interpolation-filters="sRGB">
<feFlood flood-opacity="0" result="BackgroundImageFix"/>
<feColorMatrix in="SourceAlpha" type="matrix" values="0 0 0 0 0 0 0 0 0 0 0 0 0 0 0 0 0 0 127 0"/>
<feOffset dy="15"/>
<feGaussianBlur stdDeviation="15"/>
<feColorMatrix type="matrix" values="0 0 0 0 0 0 0 0 0 0.0839841 0 0 0 0 1 0 0 0 0.4 0"/>
<feBlend mode="normal" in2="BackgroundImageFix" result="effect1_dropShadow"/>
<feBlend mode="normal" in="SourceGraphic" in2="effect1_dropShadow" result="shape"/>
</filter>
<clipPath id="clip0">
<rect width="747" height="217" fill="white"/>
</clipPath>
</defs>
</svg>
